<mxfile>
    <diagram id="qCDgCxSetWzXfEp50yRR" name="Страница 1">
        <mxGraphModel dx="820" dy="395" grid="1" gridSize="10" guides="1" tooltips="1" connect="1" arrows="1" fold="1" page="1" pageScale="1" pageWidth="827" pageHeight="1169" background="#F1FAEE" math="0" shadow="0">
            <root>
                <mxCell id="0"/>
                <mxCell id="1" parent="0"/>
                <mxCell id="2" value="Cars" style="swimlane;fillColor=#A8DADC;strokeColor=#457B9D;fontColor=#1D3557;" vertex="1" parent="1">
                    <mxGeometry x="320" y="90" width="200" height="140" as="geometry"/>
                </mxCell>
                <mxCell id="6" value="+user : string" style="text;html=1;align=center;verticalAlign=middle;resizable=0;points=[];autosize=1;strokeColor=none;fontColor=#1D3557;" vertex="1" parent="2">
                    <mxGeometry y="30" width="80" height="20" as="geometry"/>
                </mxCell>
                <mxCell id="7" value="- count : number" style="text;html=1;align=center;verticalAlign=middle;resizable=0;points=[];autosize=1;strokeColor=none;fontColor=#1D3557;" vertex="1" parent="2">
                    <mxGeometry y="50" width="100" height="20" as="geometry"/>
                </mxCell>
                <mxCell id="8" value="+constructor( :string)" style="text;html=1;align=center;verticalAlign=middle;resizable=0;points=[];autosize=1;strokeColor=none;fontColor=#1D3557;" vertex="1" parent="2">
                    <mxGeometry x="-5" y="90" width="130" height="20" as="geometry"/>
                </mxCell>
                <mxCell id="9" value="+outPut() : string" style="text;html=1;align=center;verticalAlign=middle;resizable=0;points=[];autosize=1;strokeColor=none;fontColor=#1D3557;" vertex="1" parent="2">
                    <mxGeometry y="110" width="100" height="20" as="geometry"/>
                </mxCell>
                <mxCell id="5" value="" style="shape=link;html=1;labelBackgroundColor=#F1FAEE;strokeColor=#457B9D;fontColor=#1D3557;" edge="1" parent="2">
                    <mxGeometry width="100" relative="1" as="geometry">
                        <mxPoint y="70" as="sourcePoint"/>
                        <mxPoint x="200" y="70" as="targetPoint"/>
                    </mxGeometry>
                </mxCell>
            </root>
        </mxGraphModel>
    </diagram>
</mxfile>